<svg width="17" height="17" viewBox="0 0 17 17" fill="none" xmlns="http://www.w3.org/2000/svg">
<g id="Icons">
<path id="Vector" fill-rule="evenodd" clip-rule="evenodd" d="M8.66665 3.20367C8.94278 3.20367 9.16665 3.42753 9.16665 3.70367V9.41171L11.0679 7.65265C11.2705 7.46511 11.5869 7.47738 11.7744 7.68011C11.962 7.88278 11.9497 8.19911 11.747 8.38665L9.00625 10.9225C8.81459 11.0998 8.51872 11.0998 8.32712 10.9225L5.58636 8.38665C5.38366 8.19911 5.37138 7.88278 5.55892 7.68011C5.74646 7.47738 6.06281 7.46511 6.2655 7.65265L8.16665 9.41171V3.70367C8.16665 3.42753 8.39052 3.20367 8.66665 3.20367ZM2.49998 6.6296C2.77612 6.6296 2.99998 6.85346 2.99998 7.1296C2.99998 10.2592 5.53704 12.7962 8.66665 12.7962C11.7963 12.7962 14.3333 10.2592 14.3333 7.1296C14.3333 6.85346 14.5572 6.6296 14.8333 6.6296C15.1095 6.6296 15.3333 6.85346 15.3333 7.1296C15.3333 10.8115 12.3485 13.7962 8.66665 13.7962C4.98475 13.7962 1.99998 10.8115 1.99998 7.1296C1.99998 6.85346 2.22384 6.6296 2.49998 6.6296Z" fill="#989898"/>
</g>
</svg>
