<svg width="17" height="17" viewBox="0 0 17 17" fill="none" xmlns="http://www.w3.org/2000/svg">
<g id="Icons">
<path id="Vector" fill-rule="evenodd" clip-rule="evenodd" d="M8.55618 1.83331H8.77725C9.50538 1.83331 10.0824 1.83331 10.5474 1.87131C11.023 1.91016 11.4254 1.99123 11.7929 2.17846C12.3887 2.48206 12.8732 2.9665 13.1768 3.56235C13.364 3.92979 13.445 4.33221 13.4839 4.8078C13.5219 5.27288 13.5219 5.84988 13.5219 6.57797V10.422C13.5219 11.1501 13.5219 11.727 13.4839 12.1922C13.445 12.6678 13.364 13.0702 13.1768 13.4376C12.8732 14.0334 12.3887 14.5179 11.7929 14.8215C11.4254 15.0087 11.023 15.0898 10.5474 15.1286C10.0824 15.1666 9.50538 15.1666 8.77725 15.1666H8.55618C7.82805 15.1666 7.25108 15.1666 6.786 15.1286C6.3104 15.0898 5.90798 15.0087 5.54054 14.8215C4.94469 14.5179 4.46025 14.0334 4.15665 13.4376C3.96943 13.0702 3.88836 12.6678 3.8495 12.1922C3.8115 11.727 3.8115 11.15 3.81151 10.422V6.57798C3.8115 5.84989 3.8115 5.27289 3.8495 4.8078C3.88836 4.33221 3.96943 3.92979 4.15665 3.56234C4.46025 2.9665 4.94469 2.48206 5.54054 2.17846C5.90799 1.99123 6.3104 1.91016 6.786 1.87131C7.25108 1.83331 7.82805 1.83331 8.55618 1.83331ZM6.86743 2.86799C6.45368 2.90179 6.19751 2.96604 5.99453 3.06947C5.58684 3.27719 5.25538 3.60865 5.04765 4.01633C4.94423 4.21931 4.87998 4.47548 4.84618 4.88923C4.8119 5.30883 4.81151 5.84499 4.81151 6.59998V10.4C4.81151 11.155 4.8119 11.6911 4.84618 12.1107C4.87998 12.5244 4.94423 12.7806 5.04765 12.9836C5.25538 13.3913 5.58684 13.7228 5.99453 13.9305C6.19751 14.0339 6.45368 14.0982 6.86743 14.132C7.28702 14.1662 7.82318 14.1666 8.57818 14.1666H8.75525C9.51025 14.1666 10.0464 14.1662 10.466 14.132C10.8798 14.0982 11.1359 14.0339 11.3389 13.9305C11.7466 13.7228 12.078 13.3913 12.2858 12.9836C12.3892 12.7806 12.4534 12.5244 12.4872 12.1107C12.5215 11.6911 12.5219 11.155 12.5219 10.4V6.59998C12.5219 5.84499 12.5215 5.30883 12.4872 4.88923C12.4534 4.47548 12.3892 4.21931 12.2858 4.01633C12.078 3.60865 11.7466 3.27719 11.3389 3.06947C11.1359 2.96604 10.8798 2.90179 10.466 2.86799C10.0464 2.8337 9.51025 2.83331 8.75525 2.83331H8.57818C7.82318 2.83331 7.28702 2.8337 6.86743 2.86799ZM7.24172 4.02915C7.24172 3.75301 7.46558 3.52915 7.74172 3.52915H9.59171C9.86785 3.52915 10.0917 3.75301 10.0917 4.02915C10.0917 4.30529 9.86785 4.52915 9.59171 4.52915H7.74172C7.46558 4.52915 7.24172 4.30529 7.24172 4.02915ZM8.66672 12.3937C8.94285 12.3937 9.16672 12.6176 9.16672 12.8937V12.913C9.16672 13.1891 8.94285 13.413 8.66672 13.413C8.39058 13.413 8.16672 13.1891 8.16672 12.913V12.8937C8.16672 12.6176 8.39058 12.3937 8.66672 12.3937Z" fill="#989898"/>
</g>
</svg>
